<svg width="1728" height="291" viewBox="0 0 1728 291" fill="none" xmlns="http://www.w3.org/2000/svg">
<path d="M-13.5366 118.704L45.2813 94.0278C104.099 69.7216 221.735 19.8153 339.371 5.30553C457.006 -9.75877 574.642 10.5734 692.278 25.0832C809.914 40.1475 927.549 49.3894 1045.19 44.7684C1162.82 40.1475 1280.46 19.8153 1398.09 15.1944C1515.73 10.5734 1633.36 19.8153 1692.18 25.0832L1751 29.9814V237H1692.18C1633.36 237 1515.73 237 1398.09 237C1280.46 237 1162.82 237 1045.19 237C927.549 237 809.914 237 692.278 237C574.642 237 457.006 237 339.371 237C221.735 237 104.099 237 45.2813 237H-13.5366V118.704Z" fill="white"/>
<path d="M-28 160.225L30.8179 132.946C89.6358 106.076 207.272 50.9055 324.907 34.8652C442.543 18.2118 560.179 40.6888 677.815 56.7291C795.45 73.3825 913.086 83.5993 1030.72 78.4909C1148.36 73.3825 1265.99 50.9055 1383.63 45.7971C1501.26 40.6888 1618.9 50.9055 1677.72 56.7291L1736.54 62.144V291H1677.72C1618.9 291 1501.26 291 1383.63 291C1265.99 291 1148.36 291 1030.72 291C913.086 291 795.45 291 677.815 291C560.179 291 442.543 291 324.907 291C207.272 291 89.6358 291 30.8179 291H-28V160.225Z" fill="#293FFF"/>
</svg>
