<svg width="1728" height="230" viewBox="0 0 1728 230" fill="none" xmlns="http://www.w3.org/2000/svg">
<path d="M4.31689 111.296L62.5397 135.972C120.762 160.278 237.208 210.185 353.654 224.694C470.099 239.759 586.545 219.427 702.99 204.917C819.436 189.853 935.881 180.611 1052.33 185.232C1168.77 189.853 1285.22 210.185 1401.66 214.806C1518.11 219.427 1634.55 210.185 1692.78 204.917L1751 200.019V-7H1692.78C1634.55 -7 1518.11 -7 1401.66 -7C1285.22 -7 1168.77 -7 1052.33 -7C935.881 -7 819.436 -7 702.99 -7C586.545 -7 470.099 -7 353.654 -7C237.208 -7 120.762 -7 62.5397 -7H4.31689V111.296Z" fill="white"/>
<path d="M-10 69.7749L48.2228 97.0537C106.446 123.924 222.891 179.094 339.337 195.135C455.782 211.788 572.228 189.311 688.673 173.271C805.119 156.618 921.564 146.401 1038.01 151.509C1154.46 156.618 1270.9 179.094 1387.35 184.203C1503.79 189.311 1620.24 179.094 1678.46 173.271L1736.68 167.856V-61H1678.46C1620.24 -61 1503.79 -61 1387.35 -61C1270.9 -61 1154.46 -61 1038.01 -61C921.564 -61 805.119 -61 688.673 -61C572.228 -61 455.782 -61 339.337 -61C222.891 -61 106.446 -61 48.2228 -61H-10V69.7749Z" fill="#293FFF"/>
</svg>
